<svg xmlns="http://www.w3.org/2000/svg" viewBox="0 0 216 69.76"><path d="M82,1.23,53.73,68.7H35.28L21.37,14.86c-.85-3.32-1.58-4.53-4.15-5.93C13,6.66,6.1,4.52,0,3.19l.42-2H30.11a8.13,8.13,0,0,1,8,6.88l7.35,39.05L63.68,1.23Zm72.3,45.45c.07-17.81-24.63-18.79-24.46-26.75.05-2.42,2.36-5,7.4-5.65a32.87,32.87,0,0,1,17.21,3L157.52,3A46.93,46.93,0,0,0,141.2,0C124,0,111.81,9.17,111.7,22.31,111.59,32,120.37,37.44,127,40.67c6.8,3.3,9.09,5.42,9.06,8.38,0,4.53-5.43,6.52-10.44,6.6-8.78.14-13.87-2.37-17.93-4.26L104.5,66.17c4.08,1.88,11.61,3.51,19.42,3.59,18.33,0,30.33-9.06,30.39-23.08m45.55,22H216L201.91,1.23H187a8,8,0,0,0-7.43,4.95L153.4,68.7h18.32l3.64-10.07h22.39ZM180.38,44.8l9.19-25.34,5.29,25.34ZM107,1.23,92.52,68.7H75.06L89.5,1.23Z" style="fill:#1a1f71"/></svg>